PathFileType	3	(X/Y/Z)	D:\Vicon Setup\UG\Test1\New Session\NewSession09.trc
DataRate	CameraRate	NumFrames	NumMarkers	Units	OrigDataRate	OrigDataStartFrame	OrigNumFrames
100.0	100.0	7	27	mm	100.0	342	911	
Frame#	Time	Sternum			LShoulder			RShoulder			LASIS			RASIS			RPSIS			LPSIS			RKneeLateral			RKneeMedial			RFibulaHead			RMidShank			RAnkleLateral			RAnkleMedial			RHeel			RMT5			RMT2			RToe			LKneeLateral			LKneeMedial			LFibulaHead			LMidShank			LAnkleLateral			LAnkleMedial			LHeel			LMT5			LMT2			LToe			
		X1	Y1	Z1	X2	Y2	Z2	X3	Y3	Z3	X4	Y4	Z4	X5	Y5	Z5	X6	Y6	Z6	X7	Y7	Z7	X8	Y8	Z8	X9	Y9	Z9	X10	Y10	Z10	X11	Y11	Z11	X12	Y12	Z12	X13	Y13	Z13	X14	Y14	Z14	X15	Y15	Z15	X16	Y16	Z16	X17	Y17	Z17	X18	Y18	Z18	X19	Y19	Z19	X20	Y20	Z20	X21	Y21	Z21	X22	Y22	Z22	X23	Y23	Z23	X24	Y24	Z24	X25	Y25	Z25	X26	Y26	Z26	X27	Y27	Z27	
342	3.41	257.38379	1385.4601	-1601.0913	72.611969	1439.7645	-1489.1345	444.392	1412.3878	-1517.4457	134.97928	996.13214	-1602.3123	394.97009	1004.2801	-1598.5375	321.60355	1018.017	-1424.4608	191.32524	1015.633	-1420.3032	445.41037	538.44373	-1479.5297	321.33884	497.70087	-1525.1185	456.03751	458.14679	-1470.9708	403.13333	287.20279	-1517.8203	474.85272	92.86454	-1459.7488	404.66724	119.03522	-1522.1152	405.68185	61.254662	-1404.5591	553.74274	32.46558	-1596.7925	489.09433	63.100292	-1616.2733	495.05054	44.357239	-1669.1877	87.343048	522.17993	-1500.3799	216.98462	494.41095	-1524.8678	82.307938	461.50916	-1480.9037	143.65584	300.19376	-1517.4434	78.968414	100.32799	-1448.7894	156.57712	114.02193	-1498.8345	145.47899	63.239964	-1386.2733	13.639515	43.834118	-1572.9628	72.690308	61.725197	-1600.7103	58.835728	42.23362	-1660.5518
343	3.42	257.36819	1385.4384	-1601.1572	72.573059	1439.7848	-1489.2032	444.38257	1412.3794	-1517.5354	134.96599	996.1214	-1602.3677	394.95755	1004.2762	-1598.593	321.58517	1018.0155	-1424.5261	191.31371	1015.6368	-1420.3698	445.40128	538.44501	-1479.5605	321.32294	497.70914	-1525.1726	456.03265	458.14511	-1471.0024	403.12378	287.20703	-1517.8372	474.85516	92.869209	-1459.7433	404.65988	119.04008	-1522.1157	405.68625	61.25045	-1404.5613	553.74286	32.468281	-1596.7916	489.10172	63.116455	-1616.2795	495.05295	44.357792	-1669.1815	87.335487	522.17841	-1500.3948	216.97464	494.41342	-1524.881	82.300728	461.50906	-1480.9165	143.64664	300.19812	-1517.4536	78.973503	100.32792	-1448.7888	156.57802	114.02403	-1498.8314	145.48618	63.236324	-1386.2736	13.636062	43.842216	-1572.9602	72.685974	61.733311	-1600.7106	58.836388	42.243298	-1660.5621
344	3.43	257.35333	1385.4222	-1601.2412	72.541435	1439.7985	-1489.2849	444.37094	1412.3733	-1517.6323	134.94904	996.112	-1602.4208	394.94095	1004.2783	-1598.6519	321.56482	1018.0193	-1424.5889	191.29953	1015.6449	-1420.4276	445.39169	538.44952	-1479.5917	321.30933	497.71469	-1525.2206	456.02579	458.14551	-1471.0355	403.11301	287.21274	-1517.8546	474.85739	92.876633	-1459.7347	404.65067	119.04589	-1522.1163	405.68704	61.249882	-1404.5631	553.73938	32.473454	-1596.7905	489.11295	63.164883	-1616.3055	495.05142	44.362408	-1669.1761	87.324303	522.17883	-1500.4128	216.96596	494.4158	-1524.8972	82.291901	461.51028	-1480.9302	143.6335	300.20245	-1517.4655	78.974602	100.33179	-1448.7876	156.57469	114.03144	-1498.8314	145.48834	63.236549	-1386.2732	13.631941	43.853607	-1572.9579	72.679947	61.743271	-1600.7104	58.833477	42.253937	-1660.5659
345	3.44	257.33945	1385.4065	-1601.337	72.524582	1439.8026	-1489.3846	444.35934	1412.3705	-1517.7361	134.92891	996.10376	-1602.472	394.92206	1004.2837	-1598.7153	321.54272	1018.03	-1424.6495	191.28322	1015.6579	-1420.4783	445.38181	538.45581	-1479.6232	321.30295	497.7117	-1525.2533	456.01752	458.14792	-1471.0669	403.10318	287.21677	-1517.8706	474.85876	92.883957	-1459.7277	404.64236	119.05085	-1522.1163	405.68423	61.253536	-1404.564	553.7334	32.480515	-1596.7902	489.12729	63.238369	-1616.3481	495.04678	44.369869	-1669.1718	87.308945	522.18219	-1500.4335	216.95389	494.42276	-1524.9204	82.281662	461.51318	-1480.9451	143.61969	300.20596	-1517.4771	78.970749	100.34052	-1448.7864	156.56764	114.0422	-1498.8341	145.48503	63.241264	-1386.2726	13.627828	43.864185	-1572.9563	72.674583	61.752018	-1600.7102	58.827419	42.259274	-1660.5498
346	3.45	257.32574	1385.3881	-1601.4402	72.523605	1439.7975	-1489.5017	444.35043	1412.3711	-1517.8452	134.90695	996.09619	-1602.5221	394.9028	1004.2881	-1598.7828	321.51947	1018.0474	-1424.7074	191.26614	1015.6752	-1420.5243	445.37115	538.4613	-1479.6543	321.30594	497.69733	-1525.2649	456.0087	458.15137	-1471.0951	403.09503	287.2178	-1517.8835	474.85797	92.88913	-1459.7244	404.63702	119.05373	-1522.1152	405.67877	61.260231	-1404.5632	553.72687	32.488396	-1596.7916	489.13678	63.305237	-1616.3876	495.03955	44.378548	-1669.1705	87.290154	522.18774	-1500.4554	216.93767	494.43558	-1524.9497	82.270905	461.5177	-1480.9607	143.60774	300.2084	-1517.4869	78.963051	100.35262	-1448.7856	156.55844	114.05492	-1498.8395	145.47679	63.249691	-1386.2716	13.624391	43.871223	-1572.9562	72.671082	61.756981	-1600.7106	58.818138	42.257652	-1660.5121
347	3.46	257.31104	1385.3687	-1601.5496	72.536095	1439.7854	-1489.6328	444.34521	1412.3739	-1517.9583	134.88467	996.08917	-1602.573	394.88467	1004.2878	-1598.8534	321.49652	1018.0677	-1424.7635	191.25031	1015.6939	-1420.5703	445.35892	538.46478	-1479.6837	321.31396	497.67496	-1525.2589	455.99918	458.15454	-1471.1189	403.08817	287.21616	-1517.8928	474.85397	92.891327	-1459.7253	404.63474	119.05406	-1522.1132	405.67212	61.267456	-1404.5605	553.72064	32.49575	-1596.7944	489.13217	63.330235	-1616.402	495.0307	44.386551	-1669.1731	87.269997	522.19354	-1500.4772	216.91953	494.4523	-1524.9794	82.260986	461.52246	-1480.9772	143.59836	300.20981	-1517.4952	78.953835	100.36417	-1448.7871	156.54874	114.06779	-1498.8464	145.46478	63.259682	-1386.2704	13.621796	43.873695	-1572.957	72.669449	61.757412	-1600.7117	58.806076	42.251865	-1660.465
348	3.47	257.29526	1385.3547	-1601.6689	72.556999	1439.7686	-1489.774	444.34195	1412.3773	-1518.0725	134.86356	996.08252	-1602.6272	394.86871	1004.2815	-1598.9241	321.47629	1018.087	-1424.8203	191.23753	1015.7118	-1420.6204	445.34576	538.46649	-1479.7103	321.31543	497.655	-1525.2518	455.98871	458.15671	-1471.1388	403.08142	287.21271	-1517.899	474.84741	92.891228	-1459.7295	404.63464	119.05242	-1522.1106	405.66595	61.273197	-1404.5573	553.71521	32.501602	-1596.7987	489.11551	63.312977	-1616.391	495.02234	44.392403	-1669.179	87.251427	522.19769	-1500.4974	216.90327	494.4693	-1525.0042	82.252892	461.52588	-1480.994	143.59103	300.21051	-1517.5023	78.945015	100.37122	-1448.7905	156.5401	114.07846	-1498.8534	145.45114	63.268764	-1386.2697	13.619164	43.872791	-1572.9581	72.668701	61.754562	-1600.7137	58.793407	42.246162	-1660.4264
